# xmcd
#
# Track frame offsets:
#	150
#	13675
#	28205
#	42927
#	56755
#	71867
#	87117
#	100717
#	112037
#	126165
#	140787
#	154232
#	167122
#	178707
#	189965
#	201840
#	213425
#	225015
#	236097
#	248975
#	261677
#	273425
#	287337
#	300035
#
# Disc length: 4183 seconds
#
# Revision: 1
# Processed by: cddbd v1.5.2PL0 Copyright (c) Steve Scherf et al.
# Submitted via: audiograbber 1.83.01
#
DISCID=5a105518
DTITLE=Oscar Woods and Black Ace - Texas Slide Guitars - 1930 - 1938
DYEAR=1992
DGENRE=Blues
TTITLE0=She's a Hum Dum Dinger (from Dingersville) (Oscar Woods - Jimmie Davis,
TTITLE0=vcl))
TTITLE1=Fence Breakin' Blues  (Oscar Woods - Shreveport Home Wreckers)
TTITLE2=Home Wreckin' Blues (Oscar Woods - Shreveport Home Wreckers)
TTITLE3=Bear Cat Mama from Horner's Corner (Oscar Woods - Jimmie Davis,vcl)
TTITLE4=Saturday Night Stroll (Davis and Woods, vcl duet)
TTITLE5=Sewing Machine Blues (Oscar Woods - Jimmie Davis,vc)
TTITLE6=Red Nightgown Blues (Oscar Woods - Jimmie Davis,vc)
TTITLE7=Davis's Salty Dog (Oscar Woods - Jimmie Davis,vc)
TTITLE8=Evil Hearted Woman (Oscar Woods)
TTITLE9=Lone Wolf Blues (Oscar Woods)
TTITLE10=Don't Sell It - Don't Give It Away (Oscar Woods)
TTITLE11=Muscat Hill Blues (Oscar Woods)
TTITLE12=Don't Sell It (Don't Give It Away) (Oscar Woods)
TTITLE13=Baton Rouge Rag (Oscar Woods - Kitty Gray and Her Wampus Cats)
TTITLE14=Jam Session Blues (Oscar Woods)
TTITLE15=Low Life Blues (Oscar Woods)
TTITLE16=Token Blues (Oscar Woods)
TTITLE17=Come On Over to My House Baby (Oscar Woods)
TTITLE18=Trifling Woman (Black Ace)
TTITLE19=Black Ace (Black Ace)
TTITLE20=You Gonna Need My Help Some Day (Black Ace)
TTITLE21=Whiskey and Women (Black Ace)
TTITLE22=Christmas Time Blues (Black Ace)
TTITLE23=Lowing Heifer (Black Ace)
EXTD=DOCD - 5143
EXTT0=
EXTT1=
EXTT2=
EXTT3=
EXTT4=
EXTT5=
EXTT6=
EXTT7=
EXTT8=
EXTT9=
EXTT10=60849
EXTT11=
EXTT12=SA - 2845
EXTT13=
EXTT14=
EXTT15=
EXTT16=
EXTT17=
EXTT18=
EXTT19=
EXTT20=
EXTT21=
EXTT22=
EXTT23=
PLAYORDER=
